<?xml version="1.0" encoding="utf-8"?>
<svg version="1.1" xmlns:xlink="http://www.w3.org/1999/xlink" width="170px" height="170px" xmlns="http://www.w3.org/2000/svg">
  <g transform="matrix(1 0 0 1 -103 -85 )">
    <path d="M 188 85  C 235.6 85  273 122.4  273 170  C 273 217.6  235.6 255  188 255  C 140.4 255  103 217.6  103 170  C 103 122.4  140.4 85  188 85  Z " fill-rule="nonzero" fill="#ffffff" stroke="none" />
    <path d="M 188 85.5  C 235.32 85.5  272.5 122.67999999999999  272.5 170  C 272.5 217.32  235.32 254.5  188 254.5  C 140.68 254.5  103.5 217.32  103.5 170  C 103.5 122.67999999999999  140.68 85.5  188 85.5  Z " stroke-width="1" stroke="#797979" fill="none" />
  </g>
</svg>