<?xml version="1.0" encoding="utf-8"?>
<svg version="1.1" xmlns:xlink="http://www.w3.org/1999/xlink" width="10px" height="6px" xmlns="http://www.w3.org/2000/svg">
  <g transform="matrix(1 0 0 1 -236 -297 )">
    <path d="M 9.5029296875 1.1240234374999964  C 9.5029296875 0.6201171874999982  9.16015625 0.20703124999999645  8.7412109375 0.2041015625  L 0.845703125 0.14257812499999822  C 0.4267578125 0.13964843749999822  0.083984375 0.546875  0.083984375 1.0507812499999982  C 0.083984375 1.5546874999999982  0.4267578125 1.9677734375  0.845703125 1.9707031249999982  L 8.7412109375 2.0322265624999964  C 9.16015625 2.0351562499999982  9.5029296875 1.6279296874999964  9.5029296875 1.1240234374999964  Z M 9.5029296875 4.8447265625  C 9.5029296875 4.3408203125  9.16015625 3.9277343750000036  8.7412109375 3.9248046875  L 0.845703125 3.86328125  C 0.4267578125 3.8603515625  0.083984375 4.267578125  0.083984375 4.771484375  C 0.083984375 5.2753906250000036  0.4267578125 5.6884765625  0.845703125 5.69140625  L 8.7412109375 5.7529296875  C 9.16015625 5.7587890625000036  9.5029296875 5.3486328125000036  9.5029296875 4.8447265625  Z " fill-rule="nonzero" fill="#ffffff" stroke="none" transform="matrix(1 0 0 1 236 297 )" />
  </g>
</svg>