<?xml version="1.0" encoding="utf-8"?>
<svg version="1.1" xmlns:xlink="http://www.w3.org/1999/xlink" width="26px" height="28px" xmlns="http://www.w3.org/2000/svg">
  <g transform="matrix(1 0 0 1 -225 -285 )">
    <path d="M 25 6.4970703125  L 19.5654296875 0.8720703125  L 10.216796875 0.8720703125  C 8.154296875 0.8720703125  6.466796875 2.5595703125  6.466796875 4.6220703125  L 4.5654296875 4.6220703125  C 2.5029296875 4.6220703125  0.8154296875 6.3095703125  0.8154296875 8.3720703125  L 0.8154296875 12.1220703125  C 0.8125 12.640624999999998  1.2373046875 13.0595703125  1.7587890625000004 13.0595703125  C 2.280273437500001 13.0595703125  2.7021484375 12.6376953125  2.7021484375 12.119140624999998  L 2.7021484375 8.375  C 2.7021484375 7.34375  3.5458984375 6.5  4.5771484375 6.5  L 6.466796875 6.5  L 6.466796875 19.619140625  C 6.466796875 21.681640624999996  8.154296875 23.369140625  10.216796875 23.369140625  L 17.6904296875 23.369140625  C 17.6875 24.400390625  16.846679687500004 25.238281249999996  15.8154296875 25  L 4.5771484375 25  C 3.5458984375 25.238281249999996  2.7021484375 24.39453125  2.7021484375 23.363281249999996  L 2.7021484375 19.6103515625  C 2.7021484375 19.091796875  2.2802734375 18.669921875  1.7587890625000004 18.669921875  C 1.2373046875000004 18.669921875  0.8125000000000003 19.091796875  0.8125000000000003 19.6103515625  L 0.8125000000000003 23.369140625  C 0.8125000000000003 25.431640624999996  2.500000000000001 27.119140625  4.5625 27  L 15.8154296875 27  C 17.8779296875 27.119140625  19.5654296875 25.431640624999996  19.5654296875 23.369140625  L 21.4697265625 23.369140625  C 23.5322265625 23.369140625  25.2197265625 21.681640624999996  25 19.619140625  L 25 6.4970703125  Z M 19.5625 2.729492187500001  L 19.568359375 2.7294921875  L 23.309570312500004 6.488281250000001  L 21.4375 6.488281250000001  C 20.40625 6.488281250000001  19.5625 5.64453125  19.5625 4.613281250000001  L 19.5625 2.729492187500001  Z M 23 19.6337890625  C 23.318359375 20.6650390625  22.474609375000004 21.5087890625  21.443359375 21  L 10.1904296875 21  C 9.159179687500002 21.5087890625  8.3154296875 20.6650390625  8.3154296875 19.6337890625  L 8.3154296875 4.604492187499998  C 8.3154296875 3.573242187499999  9.159179687500002 2.7294921874999987  10.1904296875 2.7294921874999987  L 17.658203125 2.7294921874999987  L 17.658203125 4.595703125  C 17.658203125 6.658203124999999  19.345703125 8.345703125  21.408203125 8.345703125  L 23 8.345703125  L 23 19.6337890625  Z " fill-rule="nonzero" fill="#ffffff" stroke="none" transform="matrix(1 0 0 1 225 285 )" />
  </g>
</svg>