<?xml version="1.0" encoding="utf-8"?>
<svg version="1.1" xmlns:xlink="http://www.w3.org/1999/xlink" width="45px" height="45px" xmlns="http://www.w3.org/2000/svg">
  <g transform="matrix(1 0 0 1 -20 -10 )">
    <path d="M 42.5 10  C 55.1 10  65 19.9  65 32.5  C 65 45.1  55.1 55  42.5 55  C 29.9 55  20 45.1  20 32.5  C 20 19.9  29.9 10  42.5 10  Z " fill-rule="nonzero" fill="#ffffff" stroke="none" />
    <path d="M 42.5 10.5  C 54.82 10.5  64.5 20.18  64.5 32.5  C 64.5 44.82  54.82 54.5  42.5 54.5  C 30.18 54.5  20.5 44.82  20.5 32.5  C 20.5 20.18  30.18 10.5  42.5 10.5  Z " stroke-width="1" stroke="#7f7f7f" fill="none" />
  </g>
</svg>