<?xml version="1.0" encoding="utf-8"?>
<svg version="1.1" xmlns:xlink="http://www.w3.org/1999/xlink" width="45px" height="45px" xmlns="http://www.w3.org/2000/svg">
  <g transform="matrix(1 0 0 1 -38 -262 )">
    <path d="M 60.5 262  C 73.1 262  83 271.9  83 284.5  C 83 297.1  73.1 307  60.5 307  C 47.9 307  38 297.1  38 284.5  C 38 271.9  47.9 262  60.5 262  Z " fill-rule="nonzero" fill="#ffffff" stroke="none" />
    <path d="M 60.5 262.5  C 72.82 262.5  82.5 272.18  82.5 284.5  C 82.5 296.82  72.82 306.5  60.5 306.5  C 48.18 306.5  38.5 296.82  38.5 284.5  C 38.5 272.18  48.18 262.5  60.5 262.5  Z " stroke-width="1" stroke="#797979" fill="none" />
  </g>
</svg>