<?xml version="1.0" encoding="utf-8"?>
<svg version="1.1" xmlns:xlink="http://www.w3.org/1999/xlink" width="48px" height="45px" xmlns="http://www.w3.org/2000/svg">
  <g transform="matrix(1 0 0 1 -307 -10 )">
    <path d="M 20.74576271186441 40.27027028716216  C 20.74142374576271 40.27027028716216  20.74576271186441 42.43459459459459  20.74576271186441 42.43459459459459  C 20.74576271186441 42.43243241554054  27.254237288135595 42.43243241554054  27.254237288135595 42.43243241554054  C 27.25857625423729 42.43243241554054  27.254237288135595 40.26810810810811  27.254237288135595 40.26810810810811  C 27.254237288135595 40.27027028716216  20.74576271186441 40.27027028716216  20.74576271186441 40.27027028716216  Z M 29.423728830508473 40.52864863175676  C 33.46527826568861 39.36884278990947  37.03634508394342 36.96716878848711  39.627932186440674 33.665945929054054  C 39.13220338983051 33.743783766891895  38.622372864406785 33.78378380067567  38.10169489830509 33.78378380067567  C 37.50260636547649 33.78378380067567  37.01694915254236 33.299767321569014  37.01694915254236 32.70270273648648  C 37.01694915254236 32.702702627237876  37.01694915254236 32.70270279505941  37 32.702702685810806  L 37 15.405405405405403  C 37.01694915254237 15.405405405405403  37.01694915254237 15.405405405405403  37.01694915254237 15.405405405405403  C 37.01694915254237 14.808340820322869  37.5026063654765 14.324324341216213  38.10169489830508 14.324324341216213  C 38.46327681355932 14.324324341216213  37.74011298305085 14.324324341216213  38.10169489830509 14.324324341216217  C 39.743735677891465 14.321767555288053  41.35965948545703 14.733867958259586  42.79864408474577 15.522162162162163  C 40.078101711864406 7.830270253378379  32.595525406779664 2.4324324324324325  23.96420338983051 2.4324324324324325  C 15.319864423728813 2.4324324324324325  7.817762694915254 7.845405405405405  5.108067813559321 15.574054054054056  C 6.5697554020234605 14.752251220827464  8.220070900422371 14.32169878890219  9.898305101694914 14.324324341216217  C 10.497393634523487 14.324324341216217  10.983050847457626 14.808340820322872  11 15.405405405405405  L 11 32.70270268581081  C 10.983050847457626 32.70270269263885  10.98305084745763 32.702702729658455  10.98305084745763 32.702702736486486  C 10.98305084745763 33.299767321569036  10.497393634523494 33.78378380067568  9.898305101694918 33.78378380067568  C 4.506078949117063 33.7837838100815  0.1351639644143003 29.427635430056785  0.1351639644143003 24.054054080351772  C 0.1351639644143003 21.816230959926962  0.9091781344790177 19.646809126967263  2.326779661016949 17.911351368243245  C 2.29713725300919 17.766096334594437  2.2978758093900185 17.6163090330705  2.3289491694915245 17.471351351351355  C 4.442033898305085 7.514594594594595  13.447593203389829 0.2702702533783782  23.96311866101695 0.2702702533783782  C 34.626169525423734 0.2702702533783782  43.71959323728814 7.716756739864865  45.67538984745762 17.85945947635135  L 45.68623728813559 17.92756758445946  C 47.098382531380956 19.658894733363233  47.86774737438677 21.822869285788624  47.864406762711866 24.054054070945945  C 47.864406762711866 27.62162163851351  45.93681355932203 30.74162163851351  43.06332203389831 32.435675675675675  C 40.1323389661017 37.53837836148649  35.19457627118645 41.29189190878378  29.396610152542372 42.77729731418919  C 29.22973077629606 43.8266298900467  28.320264002727228 44.59809760310671  27.254237288135595 44.5945945945946  L 20.74576271186441 44.5945945945946  C 19.54711866101695 44.5945945945946  18.576271169491523 43.623783800675675  18.576271169491523 42.43459459459459  L 18.576271169491523 40.26810810810811  C 18.576271169491523 39.0745945945946  19.5384406779661 38.108108108108105  20.74576271186441 38.108108108108105  L 27.254237288135595 38.108108108108105  C 28.452881338983055 38.108108108108105  29.423728830508473 39.07891890202703  29.423728830508473 40.26810810810811  L 29.423728830508473 40.52864863175676  Z M 9 16.52756756756757  C 8.813559305084745 16.52756756756757  2.28989827118644 17.28432430743243  2.305084728813559 24.054054070945945  C 2.3202711864406775 30.823783783783785  8.813559305084745 31.60216216216216  9 31.60216216216216  L 9 16.52756756756757  Z M 39 31.60216216216216  C 39.186440694915255 31.60216216216216  45.67972881355932 30.823783783783785  45.694915271186446 24.054054070945945  C 45.71010172881356 17.28432435810811  39.186440694915255 16.527567567567566  39 16.527567567567566  L 39 31.60216216216216  Z " fill-rule="nonzero" fill="#7f7f7f" stroke="none" transform="matrix(1 0 0 1 307 10 )" />
  </g>
</svg>