<?xml version="1.0" encoding="utf-8"?>
<svg version="1.1" xmlns:xlink="http://www.w3.org/1999/xlink" width="32px" height="32px" xmlns="http://www.w3.org/2000/svg">
  <g transform="matrix(1 0 0 1 -31 -619 )">
    <path d="M 30.171256870312504 12.527176350390626  C 30.15616944453125 12.5078644453125  30.13936205195312 12.491087227734372  30.122584834765625 12.473465114843748  L 19.824571892968752 2.4213772117187498  C 18.811481431249998 1.2211121472656252  17.455936580859376 0.5613993703125004  16.003017485546874 0.5613993703125004  L 15.99879300625 0.5613993703125004  C 14.542554676953124 0.5622140914062497  13.1844751390625 1.2253064511718748  12.171354502734374 2.430610716796875  L 1.8700223269531246 12.46423161015625  C 1.8525744345713635 12.48151369480994  1.8357658183717032 12.49942946534743  1.8196303250000003 12.517942845703125  C 0.3843936921874995 14.24448749453125  0.6311636265625005 15.488415569531249  0.9056340753906253 16.076794996874998  C 1.180919244921876 16.665204599609375  1.9783198683593755 17.652254164062498  4.222755491796876 17.652254164062498  L 6 17.652254164062498  L 6 30.74699303515625  C 5.3835820257812514 31.13473987578125  5.6966461089843765 31.448679030078125  6.083578228906251 31  L 25.83857065429688 31  C 26.22550277382813 31.448679030468753  26.53856685742188 31.134770051171877  26 30.74699303515625  L 26 17.76728069765625  C 26.53856685742188 17.380318403125003  26.225502774218754 17.066409423828127  25.83857065429688 17.066409423828127  C 25.45160835976563 17.066409423828127  25.13851410117188 17.380318403125003  25 17.767250522656255  L 25 30.046121760937503  L 21.046713724999996 30.046121760937503  C 21.05090802929687 30.012567326171876  21.066025630078123 29.98317702070313  21.0660256296875 29.948777690625008  L 21.0660256296875 23.38921761484375  C 21.0660256296875 20.67139892265625  19.450252860937496 18.773642166796876  17.136173680468747 18.773642167578124  L 14.850609734374999 18.773642167578124  C 12.684236451953126 18.773642167578124  10.922447576953124 20.537965730078124  10.92244757734375 22.705998629296875  L 10.92244757734375 29.948777690625  C 10.92244757734375 29.98317702148438  10.93672028203125 30.012567326562497  10.94175948203125 30.046121760937503  L 7 30.046121760937503  L 7 16.951413065234377  C 6.783574432031251 16.563636049609375  6.470480173437501 16.249696895703128  6.0835480539062505 16.249696895312503  L 4.222755491796875 16.249696895312503  C 3.1651571242187497 16.249696895312503  2.3988365980468753 15.962643533593752  2.17388308046875 15.481686576953127  C 1.952309146874999 15.006613716406253  2.2133216113281247 14.246177285546878  2.873064562890625 13.442922741015629  L 13.172737121484374 3.4109916390625035  C 13.190359234765626 3.393369525781253  13.207136452343754 3.375747412890627  13.222254053125003 3.3564355078125034  C 13.968478128515628 2.4591561261718775  14.95468279765625 1.9639566394531283  16.00051297265625 1.9631117429687528  L 16.003047659765624 1.9631117429687528  C 17.044683530859377 1.9631117429687528  18.02922858320313 2.4549618214843782  18.773732691796873 3.3488616199218786  C 18.788820117578123 3.366513908203128  18.80562751015625 3.3849809171875034  18.822434901953123 3.4017581339843783  L 29.117913156640626 13.45215624570313  C 29.77847082890625 14.255410790625003  30.041203260546872 15.014187604296879  29.820444047265624 15.485911056250004  C 29.596335425390627 15.96433332539063  28.831674516015624 16.249696895312503  27.773261427734376 16.249696895312503  C 27.386329308203123 16.249696895312503  27.07323505 16.56363604960938  27.07323505 16.951413065234377  C 27.07323505 17.33834518476563  27.38632930859375 17.652254164062505  27.773291602734375 17.652254164062505  C 30.018541946875004 17.652254164062505  30.813407883203126 16.667709111718754  31.08869305234375 16.080989301171876  C 31.362318605078123 15.494299665234376  31.60827381875 14.252876103125  30.17128704492187 12.527176350390626  Z M 12.302283182812502 30.046121760937503  C 12.3073525578125 30.012567326171876  12.322439983203125 29.983177020703124  12.32243998359375 29.948777690625  L 12.32243998359375 22.705998629296875  C 12.32243998359375 21.3110152484375  13.456410900000002 20.176199436328126  14.850579559765627 20.176199436328126  L 17.136143505859376 20.176199436328126  C 18.64947265429688 20.176199436328126  19.665942698828125 21.467109754687502  19.6659426984375 23.38921761484375  L 19.6659426984375 29.948777690625  C 19.6659426984375 29.98317702148438  19.68103012421875 30.012567326562497  19.686069324609377 30.046121760937503  L 12.302283182812502 30.046121760937503  Z " fill-rule="nonzero" fill="#ffffff" stroke="none" transform="matrix(1 0 0 1 31 619 )" />
  </g>
</svg>