<?xml version="1.0" encoding="utf-8"?>
<svg version="1.1" xmlns:xlink="http://www.w3.org/1999/xlink" width="32px" height="19px" xmlns="http://www.w3.org/2000/svg">
  <g transform="matrix(1 0 0 1 -125 -632 )">
    <path d="M 31 17.08244493303572  C 31.190713124999995 17.757640398065476  30.59369819444444 18.36531627418155  29.86401326388889 18  L 2.2023217361111116 18  C 1.4726368402777779 18.36531627418155  0.8756219097222223 17.757640362723215  0.8756218750000002 17.014925379464284  L 0.8756218750000002 12.693674481026784  C 0.8756218750000002 12.288557194940477  1.0746268402777777 11.883439944196425  1.339966840277778 11.680881318824406  L 10.361525694444445 3.983653165922618  C 10.825870625 3.5785358798363083  11.489220555555555 3.5785358798363083  11.953565520833333 3.91613361235119  L 18.18905472222222 8.372423582589285  L 29.001658368055548 0.4051172860863097  C 29.399668333333327 0.1350391071428569  29.930348263888884 0.06751955357143005  30.39469319444444 0.2700781789434528  C 30.859038124999998 0.47263680431547556  31.124378090277773 0.9452736439732153  31 1.485430001860121  L 31 17.08244493303572  Z M 3.5290215625000005 13.30135039248512  L 3.5290215625000005 15.664534484747026  L 28 15.664534484747026  L 28 4.051172719494047  L 19.051409618055555 11.005685853794638  C 18.587064687499996 11.343283586309521  17.99004975694444 11.343283586309521  17.52570482638889 11.005685853794638  L 11.290215590277777 6.616915437127973  L 3.5290215625000005 13.30135039248512  Z " fill-rule="nonzero" fill="#ffffff" stroke="none" transform="matrix(1 0 0 1 125 632 )" />
  </g>
</svg>