<?xml version="1.0" encoding="utf-8"?>
<svg version="1.1" xmlns:xlink="http://www.w3.org/1999/xlink" width="29px" height="13px" xmlns="http://www.w3.org/2000/svg">
  <g transform="matrix(1 0 0 1 -126 -624 )">
    <path d="M 2.0854816891572003 12.650746265625001  C 1.9543193027935644 12.780099515625  1.6919945643939427 12.844776106770835  1.4952510191761368 12.844776106770832  C 1.2329262807765151 12.844776106770832  0.9050203491950762 12.715422856770834  0.7738579971590908 12.521393049479167  C 0.44595206557765144 12.133333333333331  0.5115332587594699 11.486567184895831  0.9050203491950755 11.163184093749999  L 9.955223875473484 3.660696507812499  C 10.283129807054925 3.4019900416666657  10.807779283854167 3.3373134166666665  11.201266408617425 3.5960199166666666  L 17.23473542613636 7.994029841145833  L 26.678426042850376 0.7502487552083326  C 27.137494326467802 0.4268656640625004  27.727724996448863 0.49154228906249886  28.055630928030304 0.9442785963541666  C 28.38353685961174 1.397014903645834  28.317955666429928 1.9791044609374997  27.858887382812497 2.3024875520833334  L 17.759384902935608 9.999004979166667  C 17.43147897135417 10.2577114453125  16.906829494554927 10.2577114453125  16.57892356297349 9.999004979166667  L 10.611035738636366 5.600995020833332  L 2.0854816891572003 12.650746265625001  Z " fill-rule="nonzero" fill="#ffffff" stroke="none" transform="matrix(1 0 0 1 126 624 )" />
  </g>
</svg>