<?xml version="1.0" encoding="utf-8"?>
<svg version="1.1" xmlns:xlink="http://www.w3.org/1999/xlink" width="7px" height="7px" xmlns="http://www.w3.org/2000/svg">
  <g transform="matrix(1 0 0 1 -149 -623 )">
    <path d="M 5.315298515625006 5.746268657226564  C 5.250000000000006 6.203358198242189  4.79291045898438 6.5298507421875005  4.3358208837890615 6.5298507421875005  L 4.1399253710937485 6.5298507421875005  C 3.6175373144531227 6.399253710937501  3.29104477050781 5.876865654296875  3.3563432861328097 5.35447759765625  L 3.8787313427734356 2.8078358300781256  L 1.3973880566406258 3.1996268554687504  C 0.875 3.2649253710937503  0.3526119433593742 2.873134311523439  0.2873134277343743 2.350746254882812  C 0.2220149121093744 1.8283581982421873  0.6138059716796871 1.305970141601563  1.136194028320313 1.2406716259765624  L 5.054104487304693 0.6529850878906248  C 5.38059703125 0.5876865722656249  5.707089575195313 0.7182836035156255  5.902985087890626 0.9794775976562494  C 6.098880600585945 1.240671591796874  6.229477631835938 1.5018656542968745  6.1641791162109385 1.8283581982421873  L 5.315298515625006 5.746268657226564  Z " fill-rule="nonzero" fill="#ffffff" stroke="none" transform="matrix(1 0 0 1 149 623 )" />
  </g>
</svg>