<?xml version="1.0" encoding="utf-8"?>
<svg version="1.1" xmlns:xlink="http://www.w3.org/1999/xlink" width="12px" height="7px" xmlns="http://www.w3.org/2000/svg">
  <g transform="matrix(1 0 0 1 -219 -632 )">
    <path d="M 11.728959810267856 5.379964877929691  C 11.728959776785715 5.929687182617187  11.293175223214288 6.374585546875  10.754603236607144 6.374585546875  L 2.467878783482144 6.374585546875  C 1.154769073660715 6.374585546875  0.7218625781250005 5.655822880859375  0.5962563281250005 5.3469122998046865  C 0.4706500781250004 5.038001718750001  0.2793968638392863 4.218192583007812  1.2080815178571436 3.270195297851563  L 3.8837417075892864 0.5387921875000006  C 4.264363660714286 0.1497859179687504  4.880917064732143 0.1497859179687504  5.261538984375001 0.5387921875000006  C 5.642126651785715 0.9273087646484397  5.642126651785715 1.5567420312500013  5.261538984375001 1.945293574218751  L 2.8713195535714293 4.385309243164065  L 10.754603270089286 4.385309243164065  C 11.29317525669643 4.385309243164065  11.728959810267856 4.830172641601564  11.728959810267856 5.379964877929691  Z " fill-rule="nonzero" fill="#ffffff" stroke="none" transform="matrix(1 0 0 1 219 632 )" />
  </g>
</svg>