<?xml version="1.0" encoding="utf-8"?>
<svg version="1.1" xmlns:xlink="http://www.w3.org/1999/xlink" width="21px" height="7px" xmlns="http://www.w3.org/2000/svg">
  <g transform="matrix(1 0 0 1 -219 -644 )">
    <path d="M 17.40506038085938 6.397237929687501  C 17.210767109375002 6.591496201171873  16.95624468261719 6.6886253710937495  16.701757221679685 6.6886253710937495  C 16.447304726562496 6.6886253710937495  16.192782299804687 6.59149623535156  15.998558994140623 6.397237929687497  C 15.610007416992186 6.008721352539061  15.610007416992186 5.3792880859375  15.998558994140623 4.990736542968747  L 18.439519013671873 2.5507208740234364  L 1.494522729492188 2.5507208740234364  C 0.9447304931640622 2.5507208740234364  0.49986709472656266 2.1058574755859345  0.49986709472656266 1.556065239257812  C 0.49986709472656266 1.0063079687499985  0.944730493164063 0.5614096044921877  1.494522729492188 0.5614096044921877  L 18.85136479980469 0.5614096044921877  C 20.191760996093755 0.5614096044921877  20.633756342773438 1.2802422363281236  20.761979389648438 1.5891178173828133  C 20.890202436523438 1.897993398437503  21.085440092773435 2.717802568359376  20.137372875976567 3.6658348193359385  L 17.40506038085938 6.397237929687501  Z " fill-rule="nonzero" fill="#ffffff" stroke="none" transform="matrix(1 0 0 1 219 644 )" />
  </g>
</svg>