<?xml version="1.0" encoding="utf-8"?>
<svg version="1.1" xmlns:xlink="http://www.w3.org/1999/xlink" width="18px" height="18px" xmlns="http://www.w3.org/2000/svg">
  <g transform="matrix(1 0 0 1 -233 -625 )">
    <path d="M 17.422641843749997 9.32873073046875  C 17.42264184375 14.058443988281251  13.574115140625002 17.9068987265625  8.84343055078125 17.9068987265625  C 4.113753257812497 17.9068987265625  0.26623388671874754 14.058443988281251  0.26623388671874754 9.32873073046875  C 0.26623388671874754 4.597542492187501  4.113753257812497 0.7490877187500001  8.84343055078125 0.7490877187500001  C 13.574115140625002 0.7490877187500001  17.422641843749997 4.59757845703125  17.422641843749997 9.32873073046875  Z M 15.376529109374994 9.32873073046875  C 15.376529109375001 5.725521703124999  12.446135929687502 2.795200453125  8.84343055078125 2.795200453125  C 5.241732503906248 2.795200453125  2.3123825859375002 5.725521703124999  2.3123825859375002 9.32873073046875  C 2.3123825859375002 12.92949341015625  5.241732503906248 15.8607859921875  8.84343055078125 15.8607859921875  C 12.446135929687497 15.8607859921875  15.376529109374994 12.92949341015625  15.376529109374994 9.32873073046875  Z " fill-rule="nonzero" fill="#ffffff" stroke="none" transform="matrix(1 0 0 1 233 625 )" />
  </g>
</svg>