<?xml version="1.0" encoding="utf-8"?>
<svg version="1.1" xmlns:xlink="http://www.w3.org/1999/xlink" width="30px" height="31px" xmlns="http://www.w3.org/2000/svg">
  <g transform="matrix(1 0 0 1 -312 -620 )">
    <path d="M 28.490767045454547 30.907398897058826  C 28.107244318181817 30.907398897058826  27.79474431818182 30.593979779411764  27.79474431818182 30.20932904411765  L 27.79474431818182 14.143037683823529  C 27.79474431818182 13.758386948529413  28.107244318181817 13.444967830882353  28.490767045454547 13.444967830882353  C 28.874289772727273 13.444967830882353  29.186789772727273 13.758386948529413  29 14.143037683823529  L 29 30.20932904411765  C 29.186789772727273 30.593979779411764  28.874289772727273 30.907398897058826  28.490767045454547 30.907398897058826  Z M 19.893465909090907 30.907398897058826  C 19.506392045454547 30.907398897058826  19.19744318181818 30.593979779411764  19 30.20932904411765  L 19 17.57996323529412  C 19.19744318181818 17.1953125  19.50994318181818 16.881893382352942  19.893465909090907 16.881893382352942  C 20.276988636363637 16.881893382352942  20.589488636363637 17.195312499999996  20 17.57996323529412  L 20 30.20932904411765  C 20.589488636363637 30.593979779411764  20.276988636363637 30.907398897058826  19.893465909090907 30.907398897058826  Z M 27.759232954545453 0.908203125000002  C 27.681107954545457 0.5021829044117664  27.258522727272727 0.25287224264706126  26.860795454545457 0.3810891544117647  C 26.526988636363637 0.4879365808823529  26.324573863636363 0.8298483455882353  26.392045454545457 1.1753216911764706  C 26.502130681818183 1.7487362132352942  26.548295454545453 2.3328354779411766  26.5234375 2.9204963235294117  C 26.207386363636363 9.890510110294118  16.260653409090907 15.118910845588236  4.350142045454547 14.577550551470587  C 3.433948863636365 14.534811580882353  2.5355113636363655 14.46001838235294  1.6548295454545472 14.353170955882353  C 1.253551136363638 14.303308823529413  0.8948863636363649 14.609604779411764  0.877130681818183 15.012063419117647  C 0.8593750000000012 15.37890625  1.1292613636363644 15.695886948529413  1.4914772727272738 15.738625919117647  C 2.4076704545454555 15.84903492647059  3.3380681818181834 15.927389705882353  4.286221590909093 15.970128676470587  C 16.96377840909091 16.547104779411768  27.563920454545457 10.720358455882357  27.915482954545457 2.9810431985294135  C 27.947443181818183 2.2794117647058845  27.894176136363637 1.5884650735294144  27.759232954545453 0.908203125000002  Z M 2.6953125 30.907398897058826  C 2.3082386363636362 30.907398897058826  1.999289772727273 30.593979779411764  1.999289772727273 30.20932904411765  L 1.999289772727273 24.78504136029412  C 1.999289772727273 24.400390625000004  2.3117897727272725 24.086971507352942  2.6953125 24.086971507352942  C 3.0788352272727266 24.086971507352942  3.391335227272727 24.400390625  3.391335227272727 24.78504136029412  L 3.391335227272727 30.20932904411765  C 3.391335227272727 30.593979779411764  3.0788352272727266 30.907398897058826  2.6953125 30.907398897058826  Z " fill-rule="nonzero" fill="#ffffff" stroke="none" transform="matrix(1 0 0 1 312 620 )" />
  </g>
</svg>