<?xml version="1.0" encoding="utf-8"?>
<svg version="1.1" xmlns:xlink="http://www.w3.org/1999/xlink" width="18px" height="31px" xmlns="http://www.w3.org/2000/svg">
  <g transform="matrix(1 0 0 1 -322 -620 )">
    <path d="M 12.624609375 5.021829044117647  C 12.367968750000001 4.736902573529412  12.385546875000001 4.295266544117646  12.666796875000001 4.035271139705882  L 16.621875 0.37752757352941174  C 16.903125 0.11753216911764747  17.3390625 0.1389016544117647  17.595703125 0.423828125  C 17.85234375 0.7087545955882353  17.831250000000004 1.150390625  17.550000000000004 1.4103860294117647  L 13.598437500000001 5.0681295955882355  C 13.317187500000001 5.328125  12.88125 5.306755514705882  12.624609375 5.021829044117647  Z M 1.2796875000000016 30.907398897058826  C 0.9000000000000016 30.907398897058826  0.5906250000000001 30.593979779411764  0.5906250000000001 30.20932904411765  L 0.5906250000000001 21.380170036764707  C 0.5906250000000001 20.99551930147059  0.9000000000000016 20.68210018382353  1.2796875000000016 20.68210018382353  C 1.6593750000000016 20.68210018382353  1.9687500000000033 20.995519301470587  1.9687500000000033 21.380170036764707  L 1.9687500000000033 30.20932904411765  C 1.9687500000000033 30.593979779411764  1.6593750000000016 30.907398897058826  1.2796875000000016 30.907398897058826  Z " fill-rule="nonzero" fill="#ffffff" stroke="none" transform="matrix(1 0 0 1 322 620 )" />
  </g>
</svg>