<?xml version="1.0" encoding="utf-8"?>
<svg version="1.1" xmlns:xlink="http://www.w3.org/1999/xlink" width="14px" height="20px" xmlns="http://www.w3.org/2000/svg">
  <g transform="matrix(1 0 0 1 -20 -400 )">
    <path d="M 12.504571903574398 4.777644230769232  C 12.741202549182601 5.166266025641024  12.88279301745636 5.625  12.929343308395676 6.153846153846154  C 13.068994181213633 7.612179487179487  12.560820171792743 8.645833333333332  11.404821280133001 9.254807692307692  C 12.31255195344971 9.479166666666664  12.991410362981437 9.891826923076923  13.44139650872818 10.492788461538463  C 13.891382654474924 11.09375  14.065946245497368 11.951121794871792  13.965087281795512 13.064903846153847  C 13.910778609032974 13.633814102564102  13.784704904405652 14.134615384615383  13.58686616791355 14.567307692307692  C 13.389027431421447 15  13.13881961762261 15.356570512820513  12.83624272651704 15.637019230769232  C 12.53366583541147 15.917467948717947  12.157384316985317 16.15184294871795  11.70739817123857 16.34014423076923  C 11.257412025491826 16.528445512820515  10.786090329731229 16.666666666666668  10.293433083956774 16.754807692307693  C 9.800775838182323 16.84294871794872  9.236353560543087 16.903044871794872  8.600166251039068 16.935096153846153  L 8.600166251039068 20  L 6.807980049875312 20  L 6.807980049875312 16.983173076923077  C 6.187309504017734 16.983173076923077  5.7140482128013295 16.979166666666668  5.388196176226101 16.971153846153847  L 5.388196176226101 20  L 3.596009975062344 20  L 3.596009975062344 16.935096153846153  C 3.456359102244389 16.935096153846153  3.2468827930174564 16.93309294871795  2.9675810473815463 16.929086538461537  C 2.688279301745636 16.925080128205128  2.4749238016070936 16.923076923076923  2.3275145469659186 16.923076923076923  L 0 16.923076923076923  L 0.36076475477971737 14.723557692307692  L 1.652535328345802 14.723557692307692  C 2.0404544195067884 14.723557692307692  2.265447492380161 14.519230769230768  2.3275145469659186 14.110576923076923  L 2.3275145469659186 9.278846153846153  L 2.513715710723192 9.278846153846153  C 2.4671654197838735 9.270833333333332  2.405098365198116 9.266826923076923  2.3275145469659186 9.266826923076923  L 2.3275145469659186 5.817307692307692  C 2.2266555832640624 5.272435897435896  1.8814075921307842 5  1.2917705735660847 5  L 0 5  L 0 3.028846153846154  L 2.4671654197838735 3.0408653846153855  C 2.9637018564699367 3.0408653846153855  3.339983374896093 3.0368589743589736  3.596009975062344 3.028846153846154  L 3.596009975062344 0  L 5.388196176226101 0  L 5.388196176226101 2.96875  C 6.0243834857301195 2.952724358974357  6.497644776946522 2.9447115384615374  6.807980049875312 2.9447115384615374  L 6.807980049875312 0  L 8.600166251039068 0  L 8.600166251039068 3.028846153846154  C 9.213078415073428 3.0849358974358965  9.756165142698809 3.1750801282051255  10.229426433915211 3.299278846153846  C 10.702687725131616 3.423477564102564  11.141036298143533 3.603766025641024  11.544472152950956 3.8401442307692313  C 11.947908007758382 4.076522435897434  12.267941257966196 4.389022435897434  12.504571903574398 4.777644230769232  Z M 10.316708229426434 13.317307692307692  C 10.390412856747023 13.13301282051282  10.427265170407315 12.928685897435894  10.427265170407315 12.704326923076923  C 10.427265170407315 12.415865384615383  10.369077306733168 12.159455128205128  10.252701579384873 11.935096153846153  C 10.136325852036576 11.710737179487179  9.992795788307012 11.526442307692308  9.822111388196177 11.382211538461537  C 9.651426988085342 11.237980769230768  9.428373510667775 11.115785256410255  9.152950955943474 11.015625  C 8.877528401219175 10.915464743589745  8.62344139650873 10.841346153846153  8.390689941812138 10.793269230769232  C 8.157938487115546 10.745192307692308  7.870878359656414 10.709134615384617  7.529509559434746 10.685096153846153  C 7.188140759213079 10.661057692307692  6.920476586311999 10.649038461538463  6.726517040731505 10.649038461538463  C 6.5325574951510115 10.649038461538463  6.2823496813521755 10.653044871794872  5.975893599334996 10.661057692307692  C 5.669437517317817 10.669070512820511  5.485175949016348 10.673076923076923  5.42310889443059 10.673076923076923  L 5.42310889443059 14.735576923076923  C 5.485175949016348 14.735576923076923  5.628706012745914 14.737580128205128  5.853699085619285 14.741586538461537  C 6.078692158492658 14.745592948717947  6.264893322249931 14.747596153846153  6.412302576891105 14.747596153846153  C 6.559711831532281 14.747596153846153  6.765308949847603 14.741586538461537  7.029093931837074 14.729567307692308  C 7.292878913826545 14.717548076923077  7.5198115821557225 14.701522435897436  7.709891936824605 14.681490384615383  C 7.899972291493488 14.661458333333332  8.121086173455252 14.627403846153847  8.373233582709892 14.579326923076923  C 8.625380991964533 14.53125  8.840676087558881 14.475160256410255  9.019118869492935 14.411057692307692  C 9.19756165142699 14.346955128205128  9.381823219728458 14.262820512820513  9.571903574397341 14.158653846153847  C 9.761983929066226 14.054487179487179  9.915211970074814 13.934294871794872  10.031587697423108 13.798076923076923  C 10.147963424771406 13.661858974358974  10.243003602105848 13.501602564102564  10.316708229426434 13.317307692307692  Z M 9.496259351620948 7.596153846153846  C 9.566084788029924 7.411858974358974  9.600997506234414 7.207532051282048  9.600997506234414 6.983173076923077  C 9.600997506234414 6.71875  9.552507619839291 6.484375  9.455527847049044 6.280048076923077  C 9.358548074258797 6.075721153846154  9.240232751454696 5.907451923076923  9.10058187863674 5.775240384615385  C 8.960931005818786 5.643028846153846  8.774729842061513 5.530849358974357  8.54197838736492 5.438701923076923  C 8.309226932668329 5.346554487179487  8.095871432529789 5.280448717948718  7.901911886949294 5.240384615384615  C 7.7079523413688005 5.200320512820511  7.469382100304794 5.168269230769232  7.186201163757274 5.144230769230768  C 6.903020227209754 5.120192307692308  6.678027154336382 5.110176282051279  6.511221945137157 5.114182692307692  C 6.3444167359379335 5.118189102564101  6.134940426711001 5.122195512820511  5.8827930174563585 5.126201923076923  C 5.630645608201719 5.130208333333332  5.477417567193129 5.132211538461537  5.42310889443059 5.132211538461537  L 5.42310889443059 8.822115384615385  C 5.46190080354669 8.822115384615385  5.59573288999723 8.824118589743591  5.824605153782211 8.828125  C 6.053477417567194 8.832131410256409  6.233859794957053 8.832131410256409  6.365752285951787 8.828125  C 6.497644776946522 8.824118589743591  6.6916043225270165 8.816105769230768  6.947630922693267 8.804086538461537  C 7.203657522859518 8.792067307692308  7.41701302299806 8.770032051282051  7.587697423108894 8.737980769230768  C 7.758381823219729 8.705929487179487  7.958160155167636 8.661858974358974  8.187032418952619 8.605769230769232  C 8.415904682737603 8.549679487179487  8.604045441950682 8.475560897435896  8.751454696591853 8.383413461538463  C 8.89886395123303 8.291266025641024  9.042394014962593 8.183092948717947  9.182044887780549 8.058894230769232  C 9.321695760598505 7.934695512820513  9.42643391521197 7.780448717948718  9.496259351620948 7.596153846153846  Z " fill-rule="nonzero" fill="#f59a23" stroke="none" transform="matrix(1 0 0 1 20 400 )" />
  </g>
</svg>