<?xml version="1.0" encoding="utf-8"?>
<svg version="1.1" xmlns:xlink="http://www.w3.org/1999/xlink" width="17px" height="30px" xmlns="http://www.w3.org/2000/svg">
  <g transform="matrix(1 0 0 1 -10 -210 )">
    <path d="M 17 3.2958333251953134  C 16.905555567294034 1.8291666503906243  15.986868670099431 1.3083333544921887  15.19696967684659 1.3083333544921887  C 14.471464612926138 1.3083333544921887  13.677272727272728 1.7250000000000005  12.83156563476562 2.5416666796875007  L 6.559595957919033 8.629166660156248  L 3.7176767844460223 8.629166660156248  C 1.901767678444601 8.629166660156248  0.4207070774147721 10.066666655273439  0.4207070774147721 11.829166669921873  L 0.4207070774147721 18.229166689453123  C 0.4207070774147721 19.99166670410156  1.901767678444601 21.429166699218747  3.7176767844460223 21.429166699218747  L 6.559595957919033 21.429166699218747  L 12.83585857244318 27.520833354492183  C 13.685858557350851 28.345833339843747  14.484343425958809 28.766666704101564  15.205555552201702 28.766666704101564  C 15.991161607776984 28.766666704101564  16.909848459694597 28.241666689453126  17 26.76250003417969  L 17 3.2958333251953134  Z M 15 26.71666661132812  C 15.13686868519176 26.87916666503906  14.939393959517044 26.962499985351567  14.823484868607956 26.849999985351563  C 14.819191930930396 26.84583335449219  14.819191930930396 26.84583335449219  14.823484868607956 26.849999985351563  L 7.7916666716974445 20.025000014648437  C 7.585606070667614 19.82500001953125  7.306565664950284 19.71250001953125  7.014646491477275 19.71250001953125  L 3.2883838769531253 19.71250001953125  C 2.6830808416193177 19.71250001953125  2.189393959517046 19.233333339843753  2.189393959517046 18.645833334960933  L 2.1893939595170444 11.41249998046875  C 2.1893939595170444 10.824999975585937  2.6830808416193177 10.345833295898439  3.288383876953122 10.345833295898439  L 7.014646491477272 10.345833295898439  C 7.3065656649502815 10.345833295898439  7.585606070667611 10.23333329589844  7.791666671697442 10.033333300781251  L 14.81489899325284 3.2166666357421883  C 14.81489899325284 3.2166666357421883  14.819191930930396 3.2124999609375  14.819191930930396 3.2124999609375  C 14.935101021839484 3.0999999609374997  15.132575747514203 3.1833332812500004  15 3.341666616210938  L 15 26.71666661132812  Z " fill-rule="nonzero" fill="#7f7f7f" stroke="none" transform="matrix(1 0 0 1 10 210 )" />
  </g>
</svg>