<?xml version="1.0" encoding="utf-8"?>
<svg version="1.1" xmlns:xlink="http://www.w3.org/1999/xlink" width="20px" height="34px" xmlns="http://www.w3.org/2000/svg">
  <g transform="matrix(1 0 0 1 -328 -64 )">
    <path d="M 3.1839999999999975 0.0996665695930214  C 2.553232163366732 0.0996665695930214  1.9485312668141406 0.3483970033035935  1.5039999999999991 0.7906976744186046  C 0.6742496762855865 1.685473751279767  0.6742496762855865 3.058712295231861  1.5039999999999991 3.953488372093023  L 14.303999999999997 16.604651162790695  L 1.5039999999999965 29.25581395348837  C 0.7278980342966407 29.66114936180099  0.2423280441426641 30.457555316512995  0.2423280441426641 31.32514088660318  C 0.2423280441426641 32.61774407783507  1.3025177565433466 33.66560600288225  2.6103280441426646 33.66560600288225  C 3.488120503292737 33.66560600288225  4.293895939824876 33.18568217540448  4.703999999999996 32.418604651162795  L 19.135999999999992 18.15441860465116  C 19.605625698169938 17.7592912872469  19.912909650008146 17.208112278028068  20 16.604651162790695  C 19.994479681183265 15.986017738209785  19.741367102838655 15.394708226432211  19.296 14.960000000000003  L 4.863999999999999 0.7906976744186046  C 4.419468733185854 0.3483970033035921  3.814767836633263 0.0996665695930214  3.1839999999999975 0.0996665695930214  Z " fill-rule="nonzero" fill="#000000" stroke="none" transform="matrix(1 0 0 1 328 64 )" />
  </g>
</svg>