<?xml version="1.0" encoding="utf-8"?>
<svg version="1.1" xmlns:xlink="http://www.w3.org/1999/xlink" width="30px" height="30px" xmlns="http://www.w3.org/2000/svg">
  <g transform="matrix(1 0 0 1 -20 -487 )">
    <path d="M 29.510331370899912 15  C 29.510331370899912 6.9699108494533215  22.99944827586207 0.45902775441547516  14.969359125315393 0.45902775441547433  C 6.939269974768713 0.45902775441547433  0.4283868797308672 6.9699108494533215  0.4283868797308672 15  C 0.4283868797308672 23.03008915054668  6.939269974768714 29.540972245584523  14.969359125315393 29.540972245584523  C 22.99944827586207 29.540972245584523  29.510331370899912 23.03008915054668  29.510331370899912 15  Z M 20.085052985702273 17.8213826745164  C 20.085052985702273 19.092555088309503  19.60448780487805 19.94517073170732  18.70536585365854 20.627263246425567  C 17.945762825904122 21.185338940285956  17.01563666947014 21.61939781328848  15.914987384356603 21.696908326324643  L 15.914987384356603 23.49515222876367  L 14.00822876366695 23.49515222876367  L 14.00822876366695 21.665904121110174  C 12.830068965517242 21.52638519764508  11.992955424726665 21.185338940285956  11.279858704793947 20.61176114381833  C 10.334230445752738 19.867660218671155  10.055192598822542 19.061550883095034  9.869167367535749 18.053914213624896  L 12.752558452481079 17.340817493692175  C 12.752558452481079 18.286445752733382  13.729190916736755 19.371592935239693  15.201890664423889 19.371592935239693  C 16.070008410428937 19.371592935239693  17.108649285113543 18.953036164844402  17.108649285113543 17.805880571909164  C 17.108649285113543 16.875754415475186  16.11651471825063 16.209164003364165  15.062371740958788 15.976632464255673  C 13.946220353238013 15.744100925147178  11.7294196804037 14.984497897392762  11.109335576114383 14.317907485281745  C 10.489251471825062 13.651317073170727  10.318728343145498 12.690186711522284  10.318728343145498 11.589537426408743  C 10.318728343145498 10.643909167367532  10.737285113540787 9.682778805719089  11.434879730866271 9.093698906644235  C 12.10147014297729 8.535623212783849  12.89207737594617 8.163572750210257  14.008228763666946 8.024053826745162  L 14.008228763666946 6.489345668629098  L 15.914987384356603 6.489345668629098  L 15.914987384356603 8.024053826745165  C 16.969130361648446 8.132568544995795  17.837248107653494 8.47361480235492  18.503838519764507 9.031690496215306  C 19.325449957947857 9.744787216148024  19.75950883095038 10.659411269974768  19.75950883095038 11.201984861227922  L 16.87611774600505 11.884077375946173  C 16.87611774600505 11.170980656013455  15.806472666105973 10.287360807401177  15.077873843566023 10.287360807401177  C 14.132245584524814 10.287360807401177  13.388144659377629 10.55089655172414  13.388144659377629 11.729056349873842  C 13.388144659377629 12.581671993271659  14.039232968881416 12.860709840201851  15.155384356602188 13.21725820016821  C 17.03113877207738 13.821840201850295  18.45733221194281 14.596945332211943  19.108420521446597 15.26353574432296  C 19.75950883095038 15.94562825904121  20.085052985702273 16.782741799831793  20.085052985702273 17.8213826745164  Z " fill-rule="nonzero" fill="#feb900" stroke="none" transform="matrix(1 0 0 1 20 487 )" />
  </g>
</svg>