<?xml version="1.0" encoding="utf-8"?>
<svg version="1.1" xmlns:xlink="http://www.w3.org/1999/xlink" width="20px" height="23px" xmlns="http://www.w3.org/2000/svg">
  <g transform="matrix(1 0 0 1 -344 -12 )">
    <path d="M 15.625 1.6249999999999998  C 17.35088984861464 1.6249999999999998  18.750000009765625 3.0241101611509915  18.750000009765625 4.750000009765625  L 18.750000009765625 18.5  C 18.750000009765625 20.225889848614635  17.350889848614635 21.62500000976563  15.625 21.625000009765625  L 4.375 21.62500000976563  C 2.649110151385365 21.62500000976563  1.2499999902343752 20.225889848614635  1.2499999902343744 18.5  L 1.2499999902343752 4.750000009765625  C 1.2499999902343752 3.0241101611509915  2.649110151385365 1.6249999999999998  4.375 1.6249999999999993  C 4.720177971340949 1.6249999999999993  5.000000004882814 1.3451779664581363  5.000000004882814 0.9999999951171876  C 5.000000004882814 0.6548220237762381  4.72017797134095 0.37499999023437613  4.375 0.37499999023437613  C 1.958754224883684 0.3749999902343753  0 2.3337542053524345  0 4.7499999804687505  L 0 18.5  C 0 20.916245775116316  1.958754224883684 22.874999990234375  4.375 22.874999990234375  L 15.625 22.874999990234375  C 18.04124577511632 22.874999990234375  19.99999999023438 20.916245775116316  19.99999999023438 18.5  L 20 4.750000009765625  C 19.99999999023438 2.3337542053524345  18.04124577511632 0.3749999902343753  15.625000000000004 0.3749999902343753  C 15.279822028659055 0.37499999023437613  14.99999999511719 0.654822023776239  14.99999999511719 0.9999999951171876  C 14.99999999511719 1.3451779664581371  15.279822028659055 1.6249999999999993  15.625 1.6249999999999993  Z " fill-rule="nonzero" fill="#222222" stroke="none" transform="matrix(1 0 0 1 344 12 )" />
  </g>
</svg>