<?xml version="1.0" encoding="utf-8"?>
<svg version="1.1" xmlns:xlink="http://www.w3.org/1999/xlink" width="14px" height="16px" xmlns="http://www.w3.org/2000/svg">
  <g transform="matrix(1 0 0 1 -347 -12 )">
    <path d="M 12.625 12  L 1.375 12  C 1.375 12.250000002288818  1.375 12.250000002288818  1.375 12.250000002288818  C 1.0298220286590514 12.250000002288818  0.7499999951171876 11.970177968917742  0.7499999951171876 11.624999997787477  C 0.7499999951171876 11.279822026657206  1.0298220286590514 10.999999993286131  1.375 10.999999993286131  L 12.625 11  C 12.970177971340949 10.999999993286131  13.250000004882814 11.279822026657206  13.250000004882814 11.624999997787477  C 13.250000004882814 11.970177968917742  12.970177971340949 12.250000002288818  12.625 12.250000002288818  C 12.625 12.250000002288818  12.625 12.250000002288818  12.625 12  Z M 12.625 8.500000004577636  L 1.375 8.500000004577636  C 1.0298220286590514 8.500000004577636  0.7499999951171876 8.22017797120656  0.7499999951171876 7.875000000076294  C 0.7499999951171876 7.529822028946025  1.0298220286590514 7.2499999955749495  1.375 7.2499999955749495  L 12.625 7.2499999955749495  C 12.970177971340949 7.2499999955749495  13.250000004882814 7.529822028946025  13.250000004882814 7.875000000076294  C 13.250000004882814 8.22017797120656  12.970177971340949 8.500000004577636  12.625 8.500000004577636  Z M 12.625 16  L 1.375 15.999999999999996  C 1.0298220286590531 15.999999999999996  0.7499999951171894 15.720177966628928  0.7499999951171894 15.374999995498655  C 0.7499999951171894 15.029822024368388  1.0298220286590531 14.749999990997315  1.375 14.749999990997315  L 12.625 14.749999990997315  C 12.970177971340949 14.749999990997315  13.250000004882814 15.029822024368388  13.250000004882814 15.374999995498655  C 13.250000004882814 15.720177966628928  12.970177971340949 15.999999999999996  12.625 15.999999999999996  Z M 3.8749999902343752 1.6249999990081787  L 10.125000009765625 1.6249999990081778  C 10.470177981106573 1.6249999990081778  10.750000014648435 1.3451779656371048  10.750000014648435 0.9999999945068361  C 10.750000014648435 0.6548220233765665  10.470177981106573 0.37499999000549433  10.125000009765625 0.37499999000549433  L 3.8749999902343752 0.37499999000549344  C 3.5298220188934244 0.37499999000549433  3.249999985351561 0.6548220233765674  3.249999985351561 0.9999999945068361  C 3.249999985351561 1.3451779656371057  3.5298220188934244 1.6249999990081778  3.8749999902343752 1.6249999990081778  Z " fill-rule="nonzero" fill="#222222" stroke="none" transform="matrix(1 0 0 1 347 12 )" />
  </g>
</svg>