<?xml version="1.0" encoding="utf-8"?>
<svg version="1.1" xmlns:xlink="http://www.w3.org/1999/xlink" width="18px" height="11px" xmlns="http://www.w3.org/2000/svg">
  <g transform="matrix(1 0 0 1 -26 -89 )">
    <path d="M 16.92409644230769 1.7854823979591858  C 16.92409644230769 2.6147856709183683  13.384477615384615 3.2869773750000015  9.01836969230769 3.2869773469387775  C 4.652261769230768 3.2869773469387775  1.1124959711538447 2.614785642857144  1.1124959711538447 1.7854823979591858  C 1.1124959711538447 0.9563220688775539  4.652114798076921 0.28398742091837004  9.01836969230769 0.28398742091837004  C 13.384477615384615 0.28398742091837004  16.92409644230769 0.9563220688775539  16.92409644230769 1.7854823979591858  Z M 10.666057413461536 3.9385830000000026  C 14.781308855769229 3.770177686224492  17.89533871153846 2.9823324030612253  17.895338682692305 2.0358030280612254  C 17.895338682692305 0.9664721224489812  13.921019509615384 0.09971368112245012  9.01836969230769 0.09971368112245012  C 4.11586681730769 0.09971368112245012  0.14125373076922898 0.9664721224489812  0.14125373076922898 2.0358030280612254  C 0.14125373076922898 2.9774718341836737  3.223099874999998 3.7620290433673493  7.306902403846152 3.935866785714287  L 7.306902403846152 10.831335568877552  L 10.666057413461536 10.831335568877552  L 10.666057413461536 3.9385830000000026  Z " fill-rule="nonzero" fill="#ffffff" stroke="none" transform="matrix(1 0 0 1 26 89 )" />
  </g>
</svg>