<?xml version="1.0" encoding="utf-8"?>
<svg version="1.1" xmlns:xlink="http://www.w3.org/1999/xlink" width="25px" height="24px" xmlns="http://www.w3.org/2000/svg">
  <g transform="matrix(1 0 0 1 -340 -8 )">
    <path d="M 10.805084745762713 21.477477486486485  C 10.802824867584745 21.477477486486485  10.805084745762713 22.63178378378378  10.805084745762713 22.63178378378378  C 10.805084745762713 22.630630621621624  14.194915254237289 22.630630621621624  14.194915254237289 22.630630621621624  C 14.197175132415255 22.630630621621624  14.194915254237289 21.476324324324324  14.194915254237289 21.476324324324324  C 14.194915254237289 21.477477486486485  10.805084745762713 21.477477486486485  10.805084745762713 21.477477486486485  Z M 15.324858765889829 21.61527927027027  C 17.42983243004615 20.996716154618383  19.289763064553863 19.71582335385979  20.639548013771186 17.955171162162163  C 20.38135593220339 17.996684675675674  20.115819200211867 18.018018027027026  19.8446327595339 18.018018027027026  C 19.532607482019003 18.018018027027026  19.279661016949145 17.75987590483681  19.279661016949145 17.441441459459455  L 19.27966101694915 8.216216216216214  C 19.27966101694915 7.897781770838863  19.532607482019014 7.6396396486486475  19.844632759533894 7.6396396486486475  C 20.032956673728812 7.6396396486486475  19.656308845338984 7.6396396486486475  19.8446327595339 7.639639648648648  C 20.699862332235135 7.638276029486962  21.541489315342204 7.858062911071779  22.29096046080509 8.278486486486486  C 20.874011308262713 4.176144135135136  16.97683614936441 1.2972972972972974  12.481355932203389 1.2972972972972974  C 7.979096054025423 1.2972972972972974  4.071751403601695 4.184216216216216  2.6604519862288134 8.306162162162163  C 3.421747605220552 7.867867317774648  4.281286927303318 7.638239354081168  5.155367240466101 7.639639648648648  C 5.467392517980983 7.639639648648648  5.720338983050848 7.897781770838865  5.720338983050848 8.216216216216216  L 5.720338983050848 17.441441432432434  C 5.720338983050849 17.759875904836818  5.467392517980986 18.01801802702703  5.155367240466103 18.01801802702703  C 2.3469161193318038 18.018018032043468  0.07039789813244808 15.694738896030284  0.07039789813244808 12.828828842854278  C 0.07039789813244808 11.635323178627713  0.4735302783744884 10.478298201049206  1.211864406779661 9.552720729729732  C 1.196425652608953 9.475251378450366  1.1968103173906346 9.395364817637601  1.212994359110169 9.318054054054056  C 2.3135593220338984 4.0077837837837835  7.003954793432203 0.14414413513513502  12.480790969279662 0.14414413513513502  C 18.034463294491527 0.14414413513513502  22.77062147775424 4.115603594594594  23.789265545550847 9.525045054054054  L 23.794915254237285 9.561369378378378  C 24.53040756842758 10.484743857793724  24.931118424159774 11.638863619087266  24.929378522245763 12.828828837837836  C 24.929378522245763 14.731531540540539  23.92542372881356 16.39553154054054  22.428813559322037 17.299027027027027  C 20.90225987817797 20.020468459459458  18.330508474576273 22.022342351351348  15.310734454449152 22.814558567567566  C 15.223818112654197 23.37420260802491  14.750137501420433 23.785652054990244  14.194915254237289 23.783783783783782  L 10.805084745762713 23.783783783783782  C 10.180790969279661 23.783783783783782  9.675141234110168 23.266018027027027  9.675141234110168 22.63178378378378  L 9.675141234110168 21.476324324324324  C 9.675141234110168 20.839783783783787  10.176271186440678 20.324324324324323  10.805084745762713 20.324324324324323  L 14.194915254237289 20.324324324324323  C 14.81920903072034 20.324324324324323  15.324858765889829 20.842090081081082  15.324858765889829 21.476324324324324  L 15.324858765889829 21.61527927027027  Z M 4.590395471398304 8.814702702702704  C 4.590395471398304 8.814702702702704  1.1926553495762708 9.218306297297298  1.2005649629237287 12.828828837837836  C 1.2084745762711862 16.439351351351352  4.590395471398304 16.854486486486486  4.590395471398304 16.854486486486486  L 4.590395471398304 8.814702702702704  Z M 20.409604528601697 16.854486486486486  C 20.409604528601697 16.854486486486486  23.791525423728814 16.439351351351352  23.79943503707627 12.828828837837836  C 23.80734465042373 9.218306324324324  20.409604528601697 8.814702702702702  20.409604528601697 8.814702702702702  L 20.409604528601697 16.854486486486486  Z " fill-rule="nonzero" fill="#7f7f7f" stroke="none" transform="matrix(1 0 0 1 340 8 )" />
  </g>
</svg>