<?xml version="1.0" encoding="utf-8"?>
<svg version="1.1" xmlns:xlink="http://www.w3.org/1999/xlink" width="14px" height="8px" xmlns="http://www.w3.org/2000/svg">
  <g transform="matrix(1 0 0 1 -351 -16 )">
    <path d="M 7.359999999999999 7.309999999999999  C 7.26 7.399999999999999  7.130000000000001 7.449999999999999  7 7.449999999999999  C 6.869999999999999 7.449999999999999  6.74 7.4  6.65 7.300000000000001  L 0.75 1.4000000000000012  C 0.5499999999999998 1.200000000000001  0.5499999999999998 0.8900000000000006  0.75 0.6900000000000013  C 0.9500000000000002 0.490000000000002  1.2599999999999998 0.4900000000000011  1.46 0.6900000000000013  L 7.010000000000001 6.240000000000002  L 12.549999999999999 0.7000000000000002  C 12.75 0.5  13.059999999999999 0.5  13.259999999999998 0.7000000000000002  C 13.46 0.9000000000000004  13.46 1.2100000000000009  13.259999999999998 1.4100000000000001  L 7.359999999999999 7.309999999999999  Z " fill-rule="nonzero" fill="#7f7f7f" stroke="none" transform="matrix(1 0 0 1 351 16 )" />
  </g>
</svg>